<svg width="657.9px" height="122px" xmlns="http://www.w3.org/2000/svg" viewBox="-78.94687499999998 14 657.89375 122" style="background: rgba(0, 0, 0, 0)" preserveAspectRatio="xMidYMid"><defs><linearGradient id="editing-rainbow-gradient" x1="0" x2="1" y1="0.5" y2="0.5" gradientUnits="objectBoundingBox"><stop offset="0" stop-color="#ff0000"></stop><stop offset="0.2" stop-color="#ff9900"></stop><stop offset="0.3" stop-color="#ffff44"></stop><stop offset="0.5" stop-color="#99ff00"></stop><stop offset="0.7" stop-color="#0099ff"></stop><stop offset="0.8" stop-color="#0000ff"></stop><stop offset="1" stop-color="#9900ff"></stop></linearGradient><filter id="editing-rainbow" x="-100%" y="-100%" width="300%" height="300%"><feMorphology operator="dilate" radius="1,2" in="SourceGraphic" result="dilate"></feMorphology><feColorMatrix in="dilate" result="color" type="matrix" values="0.7 0 0 0 0  0 0.7 0 0 0  0 0 0.7 0 0  0 0 0 1 0"></feColorMatrix><feOffset dy="2" result="offset"></feOffset><feGaussianBlur stdDeviation="3"></feGaussianBlur><feOffset dy="3"></feOffset><feColorMatrix result="blur" type="matrix" values="0.7 0 0 0 0  0 0.7 0 0 0  0 0 0.7 0 0  0 0 0 1 0"></feColorMatrix><feMerge><feMergeNode in="blur"></feMergeNode><feMergeNode in="offset"></feMergeNode><feMergeNode in="SourceGraphic"></feMergeNode></feMerge></filter></defs><g filter="url(#editing-rainbow)"><g transform="matrix(1.3,0,0,1.6,-65.7,197.2)"><path d="M 23.3 -61.4 L 9.4 -61.4 L 17.5 -103.6 L 31.6 -103.6 L 23.3 -61.4 Z M 79.1 -60.1 L 79.1 -60.1 L 79.1 -60.1 Q 71.3 -60.1 71.3 -66.1 L 71.3 -66.1 L 71.3 -66.1 Q 71.3 -68.7 72.4 -73.8 L 72.4 -73.8 L 72.4 -73.8 Q 73.6 -78.9 73.9 -81 L 73.9 -81 L 73.9 -81 Q 74.8 -85.6 74.8 -87.1 L 74.8 -87.1 L 74.8 -87.1 Q 74.8 -90.4 72.4 -90.4 L 72.4 -90.4 L 72.4 -90.4 Q 70.8 -90.4 69.3 -88.2 L 69.3 -88.2 L 69.3 -88.2 Q 67.7 -86 67 -81.5 L 67 -81.5 L 63.1 -61.4 L 50.6 -60.1 L 54 -77.5 L 54 -77.5 Q 54.6 -80.4 55.1 -83.7 L 55.1 -83.7 L 55.1 -83.7 Q 55.6 -86.9 55.6 -87.4 L 55.6 -87.4 L 55.6 -87.4 Q 55.6 -90.4 53.5 -90.4 L 53.5 -90.4 L 53.5 -90.4 Q 52 -90.4 50.4 -88.2 L 50.4 -88.2 L 50.4 -88.2 Q 48.8 -86 47.9 -81.5 L 47.9 -81.5 L 44 -61.4 L 31.4 -60.1 L 38.1 -94 L 48.5 -95.3 L 47.4 -88.8 L 47.4 -88.8 Q 49.1 -92.3 52.2 -93.8 L 52.2 -93.8 L 52.2 -93.8 Q 55.2 -95.3 60 -95.3 L 60 -95.3 L 60 -95.3 Q 62.8 -95.3 64.6 -94 L 64.6 -94 L 64.6 -94 Q 66.4 -92.6 67 -90.4 L 67 -90.4 L 67 -90.4 Q 68 -92.7 70.8 -94 L 70.8 -94 L 70.8 -94 Q 73.6 -95.3 77 -95.3 L 77 -95.3 L 77 -95.3 Q 80.5 -95.3 82.2 -94.6 L 82.2 -94.6 L 82.2 -94.6 Q 83.9 -93.8 84.9 -92.6 L 84.9 -92.6 L 84.9 -92.6 Q 86.6 -90.4 86.6 -86.3 L 86.6 -86.3 L 86.6 -86.3 Q 86.6 -82.2 84.9 -73.9 L 84.9 -73.9 L 84.9 -73.9 Q 84 -69.8 84 -68.3 L 84 -68.3 L 84 -68.3 Q 84 -66.8 84.8 -65.9 L 84.8 -65.9 L 84.8 -65.9 Q 85.7 -65 87 -64.8 L 87 -64.8 L 87 -64.8 Q 86.4 -62.7 84.1 -61.4 L 84.1 -61.4 L 84.1 -61.4 Q 81.9 -60.1 79.1 -60.1 Z M 94.7 -63.3 L 94.7 -63.3 L 94.7 -63.3 Q 93.2 -65 92.5 -67.6 L 92.5 -67.6 L 92.5 -67.6 Q 91.9 -70.2 91.9 -74.5 L 91.9 -74.5 L 91.9 -74.5 Q 91.9 -78.8 93.3 -82.7 L 93.3 -82.7 L 93.3 -82.7 Q 94.8 -86.6 97.5 -89.4 L 97.5 -89.4 L 97.5 -89.4 Q 103 -95.3 112.1 -95.3 L 112.1 -95.3 L 112.1 -95.3 Q 115.3 -95.3 117.7 -94.2 L 117.7 -94.2 L 128.7 -95.3 L 123.9 -70.3 L 123.9 -70.3 Q 123.7 -69.6 123.7 -68.2 L 123.7 -68.2 L 123.7 -68.2 Q 123.7 -66.8 124.6 -65.9 L 124.6 -65.9 L 124.6 -65.9 Q 125.5 -65 126.7 -64.8 L 126.7 -64.8 L 126.7 -64.8 Q 126.1 -62.7 123.8 -61.4 L 123.8 -61.4 L 123.8 -61.4 Q 121.4 -60.1 118.8 -60.1 L 118.8 -60.1 L 118.8 -60.1 Q 116.2 -60.1 114.4 -61.1 L 114.4 -61.1 L 114.4 -61.1 Q 112.7 -62.1 112.1 -63.8 L 112.1 -63.8 L 112.1 -63.8 Q 111.1 -62.2 108.9 -61.1 L 108.9 -61.1 L 108.9 -61.1 Q 106.8 -60.1 103.9 -60.1 L 103.9 -60.1 L 103.9 -60.1 Q 100.9 -60.1 98.6 -60.9 L 98.6 -60.9 L 98.6 -60.9 Q 96.2 -61.6 94.7 -63.3 Z M 108.2 -89.3 L 108.2 -89.3 L 108.2 -89.3 Q 107.5 -88.1 106.8 -86.2 L 106.8 -86.2 L 106.8 -86.2 Q 106.2 -84.2 105.1 -79 L 105.1 -79 L 105.1 -79 Q 104.1 -73.8 104.1 -70.1 L 104.1 -70.1 L 104.1 -70.1 Q 104.1 -66.4 104.7 -65.3 L 104.7 -65.3 L 104.7 -65.3 Q 105.2 -64.2 106.3 -64.2 L 106.3 -64.2 L 106.3 -64.2 Q 108.3 -64.2 109.8 -66.2 L 109.8 -66.2 L 109.8 -66.2 Q 111.3 -68.1 111.9 -71.6 L 111.9 -71.6 L 115.3 -90.3 L 115.3 -90.3 Q 113.9 -91.5 112.4 -91.5 L 112.4 -91.5 L 112.4 -91.5 Q 110.8 -91.5 109.9 -91 L 109.9 -91 L 109.9 -91 Q 108.9 -90.4 108.2 -89.3 Z M 136.4 -88.1 L 136.4 -88.1 L 136.4 -88.1 Q 138.6 -91.2 141.9 -93.3 L 141.9 -93.3 L 141.9 -93.3 Q 145.2 -95.3 149.2 -95.3 L 149.2 -95.3 L 149.2 -95.3 Q 153.2 -95.3 155.2 -94 L 155.2 -94 L 167.7 -95.3 L 163.3 -70.7 L 163.3 -70.7 Q 161.1 -58.2 156.4 -53.3 L 156.4 -53.3 L 156.4 -53.3 Q 151.8 -48.6 143 -48.6 L 143 -48.6 L 143 -48.6 Q 136.3 -48.6 132.4 -50.7 L 132.4 -50.7 L 132.4 -50.7 Q 128.6 -52.8 128.6 -56.3 L 128.6 -56.3 L 128.6 -56.3 Q 128.6 -59 130.6 -60.5 L 130.6 -60.5 L 130.6 -60.5 Q 132.6 -62 135.6 -62 L 135.6 -62 L 135.6 -62 Q 138.3 -62 140.4 -60.7 L 140.4 -60.7 L 140.4 -60.7 Q 141.6 -60.1 142.2 -59.2 L 142.2 -59.2 L 142.2 -59.2 Q 140.7 -57.9 140.7 -55.8 L 140.7 -55.8 L 140.7 -55.8 Q 140.7 -53.1 143.2 -53.1 L 143.2 -53.1 L 143.2 -53.1 Q 147.5 -53.1 150 -63.2 L 150 -63.2 L 150 -63.2 Q 150.7 -65.9 151.2 -68.7 L 151.2 -68.7 L 151.2 -68.7 Q 148.4 -65.2 141.8 -65.2 L 141.8 -65.2 L 141.8 -65.2 Q 137.3 -65.2 134.7 -67.3 L 134.7 -67.3 L 134.7 -67.3 Q 132 -69.5 132 -74.6 L 132 -74.6 L 132 -74.6 Q 132 -77.8 133.1 -81.4 L 133.1 -81.4 L 133.1 -81.4 Q 134.2 -85.1 136.4 -88.1 Z M 144.7 -74.4 L 144.7 -74.4 L 144.7 -74.4 Q 144.7 -70.1 147 -70.1 L 147 -70.1 L 147 -70.1 Q 148.5 -70.1 150 -71.8 L 150 -71.8 L 150 -71.8 Q 151.1 -73.1 151.6 -75.1 L 151.6 -75.1 L 154.8 -91.5 L 154.8 -91.5 Q 154.5 -91.6 154.2 -91.7 L 154.2 -91.7 L 154.2 -91.7 Q 153.6 -92 152.7 -92 L 152.7 -92 L 152.7 -92 Q 148.8 -92 146.5 -85.6 L 146.5 -85.6 L 146.5 -85.6 Q 144.7 -80.6 144.7 -74.4 Z M 196.1 -72.2 L 196.1 -72.2 L 196.1 -72.2 Q 197.7 -71.1 197.7 -68.7 L 197.7 -68.7 L 197.7 -68.7 Q 197.7 -66.3 196.5 -64.8 L 196.5 -64.8 L 196.5 -64.8 Q 195.3 -63.2 193.3 -62.2 L 193.3 -62.2 L 193.3 -62.2 Q 189.2 -60.1 184.8 -60.1 L 184.8 -60.1 L 184.8 -60.1 Q 180.4 -60.1 177.8 -61.1 L 177.8 -61.1 L 177.8 -61.1 Q 175.2 -62 173.5 -63.8 L 173.5 -63.8 L 173.5 -63.8 Q 170.1 -67.2 170.1 -73.4 L 170.1 -73.4 L 170.1 -73.4 Q 170.1 -83.1 175.3 -89 L 175.3 -89 L 175.3 -89 Q 180.9 -95.3 190.7 -95.3 L 190.7 -95.3 L 190.7 -95.3 Q 196.8 -95.3 199.8 -92.7 L 199.8 -92.7 L 199.8 -92.7 Q 202.1 -90.8 202.1 -87.7 L 202.1 -87.7 L 202.1 -87.7 Q 202.1 -76.4 182.6 -76.4 L 182.6 -76.4 L 182.6 -76.4 Q 182.4 -74.8 182.4 -73.4 L 182.4 -73.4 L 182.4 -73.4 Q 182.4 -70.4 183.7 -69.3 L 183.7 -69.3 L 183.7 -69.3 Q 185 -68.2 187.4 -68.2 L 187.4 -68.2 L 187.4 -68.2 Q 189.8 -68.2 192.4 -69.3 L 192.4 -69.3 L 192.4 -69.3 Q 195 -70.4 196.1 -72.2 Z M 183.1 -79.2 L 183.1 -79.2 L 183.1 -79.2 Q 187.6 -79.2 190.2 -82 L 190.2 -82 L 190.2 -82 Q 192.8 -84.7 192.8 -89 L 192.8 -89 L 192.8 -89 Q 192.8 -90.4 192.3 -91.2 L 192.3 -91.2 L 192.3 -91.2 Q 191.8 -92 190.7 -92 L 190.7 -92 L 190.7 -92 Q 189.6 -92 188.7 -91.6 L 188.7 -91.6 L 188.7 -91.6 Q 187.7 -91.2 186.8 -89.8 L 186.8 -89.8 L 186.8 -89.8 Q 184.4 -86.6 183.1 -79.2 Z M 223.4 -83.8 L 223.4 -83.8 L 223.4 -83.8 Q 224.3 -86.2 224.3 -88.3 L 224.3 -88.3 L 224.3 -88.3 Q 224.3 -92 221.2 -92 L 221.2 -92 L 221.2 -92 Q 219.6 -92 218.3 -90.6 L 218.3 -90.6 L 218.3 -90.6 Q 217 -89.2 217 -87.4 L 217 -87.4 L 217 -87.4 Q 217 -86.1 218 -85.1 L 218 -85.1 L 218 -85.1 Q 219.5 -83.7 223.2 -81.4 L 223.2 -81.4 L 223.2 -81.4 Q 227 -79 228.5 -77.2 L 228.5 -77.2 L 228.5 -77.2 Q 229.9 -75.3 229.9 -72.7 L 229.9 -72.7 L 229.9 -72.7 Q 229.9 -70.1 228.7 -67.7 L 228.7 -67.7 L 228.7 -67.7 Q 227.4 -65.4 225.2 -63.7 L 225.2 -63.7 L 225.2 -63.7 Q 220.4 -60.1 212.7 -60.1 L 212.7 -60.1 L 212.7 -60.1 Q 208.5 -60.1 205.3 -62.3 L 205.3 -62.3 L 205.3 -62.3 Q 202.1 -64.4 202.1 -66.9 L 202.1 -66.9 L 202.1 -66.9 Q 202.1 -69.4 204 -70.9 L 204 -70.9 L 204 -70.9 Q 205.8 -72.3 208.5 -72.3 L 208.5 -72.3 L 208.5 -72.3 Q 211.2 -72.3 212.8 -71.3 L 212.8 -71.3 L 212.8 -71.3 Q 212 -69.2 212 -67.8 L 212 -67.8 L 212 -67.8 Q 212 -63.6 215.6 -63.6 L 215.6 -63.6 L 215.6 -63.6 Q 217.1 -63.6 218.1 -64.5 L 218.1 -64.5 L 218.1 -64.5 Q 219.2 -65.5 219.2 -67.1 L 219.2 -67.1 L 219.2 -67.1 Q 219.2 -70.4 213.6 -73.9 L 213.6 -73.9 L 213.6 -73.9 Q 209.2 -76.8 208.1 -78 L 208.1 -78 L 208.1 -78 Q 206.4 -80 206.4 -82.6 L 206.4 -82.6 L 206.4 -82.6 Q 206.4 -85.1 207.6 -87.6 L 207.6 -87.6 L 207.6 -87.6 Q 208.8 -90 211.1 -91.7 L 211.1 -91.7 L 211.1 -91.7 Q 215.8 -95.3 223.9 -95.3 L 223.9 -95.3 L 223.9 -95.3 Q 228 -95.3 230.5 -93.6 L 230.5 -93.6 L 230.5 -93.6 Q 233 -92 233 -89.2 L 233 -89.2 L 233 -89.2 Q 233 -86.3 231.3 -84.7 L 231.3 -84.7 L 231.3 -84.7 Q 229.6 -83.1 226.5 -83.1 L 226.5 -83.1 L 226.5 -83.1 Q 224.4 -83.1 223.4 -83.8 Z M 274.4 -82 L 287.4 -83.1 L 287.4 -83.1 Q 282.8 -73 282.8 -61.3 L 282.8 -61.3 L 282.8 -61.3 Q 281 -60.1 278.5 -60.1 L 278.5 -60.1 L 278.5 -60.1 Q 276 -60.1 274.4 -61.3 L 274.4 -61.3 L 274.4 -61.3 Q 272.8 -62.5 272.5 -63.7 L 272.5 -63.7 L 272.5 -63.7 Q 270.9 -62 268.3 -61.1 L 268.3 -61.1 L 268.3 -61.1 Q 265.7 -60.1 262.9 -60.1 L 262.9 -60.1 L 262.9 -60.1 Q 260.2 -60.1 257.8 -61 L 257.8 -61 L 257.8 -61 Q 255.4 -61.9 253.5 -63.9 L 253.5 -63.9 L 253.5 -63.9 Q 249.4 -68.2 249.4 -76.5 L 249.4 -76.5 L 249.4 -76.5 Q 249.4 -89.3 256.3 -97 L 256.3 -97 L 256.3 -97 Q 263.3 -104.9 275.8 -104.9 L 275.8 -104.9 L 275.8 -104.9 Q 284.4 -104.9 287.5 -100.4 L 287.5 -100.4 L 287.5 -100.4 Q 288.5 -99 288.5 -97.3 L 288.5 -97.3 L 288.5 -97.3 Q 288.5 -95.6 287.7 -94.2 L 287.7 -94.2 L 287.7 -94.2 Q 287 -92.7 285.8 -91.6 L 285.8 -91.6 L 285.8 -91.6 Q 283.1 -89 279.7 -89 L 279.7 -89 L 279.7 -89 Q 278.4 -89 277.1 -89.5 L 277.1 -89.5 L 277.1 -89.5 Q 277.3 -91.4 277.3 -93.6 L 277.3 -93.6 L 277.3 -93.6 Q 277.3 -95.9 277.2 -96.9 L 277.2 -96.9 L 277.2 -96.9 Q 277 -97.9 276.6 -98.8 L 276.6 -98.8 L 276.6 -98.8 Q 275.8 -100.5 274 -100.5 L 274 -100.5 L 274 -100.5 Q 272.1 -100.5 270.1 -98.5 L 270.1 -98.5 L 270.1 -98.5 Q 268.1 -96.6 266.5 -93.4 L 266.5 -93.4 L 266.5 -93.4 Q 263 -86.2 263 -77.6 L 263 -77.6 L 263 -77.6 Q 263 -73.6 264.5 -70.8 L 264.5 -70.8 L 264.5 -70.8 Q 266.2 -67.7 269.1 -67.7 L 269.1 -67.7 L 269.1 -67.7 Q 270.2 -67.7 271.1 -68.2 L 271.1 -68.2 L 271.1 -68.2 Q 272 -68.7 272.4 -69.1 L 272.4 -69.1 L 274.4 -82 Z M 293.3 -63.3 L 293.3 -63.3 L 293.3 -63.3 Q 291.8 -65 291.1 -67.6 L 291.1 -67.6 L 291.1 -67.6 Q 290.4 -70.2 290.4 -74.5 L 290.4 -74.5 L 290.4 -74.5 Q 290.4 -78.8 291.9 -82.7 L 291.9 -82.7 L 291.9 -82.7 Q 293.4 -86.6 296.1 -89.4 L 296.1 -89.4 L 296.1 -89.4 Q 301.6 -95.3 310.7 -95.3 L 310.7 -95.3 L 310.7 -95.3 Q 313.9 -95.3 316.3 -94.2 L 316.3 -94.2 L 327.2 -95.3 L 322.5 -70.3 L 322.5 -70.3 Q 322.3 -69.6 322.3 -68.2 L 322.3 -68.2 L 322.3 -68.2 Q 322.3 -66.8 323.2 -65.9 L 323.2 -65.9 L 323.2 -65.9 Q 324 -65 325.3 -64.8 L 325.3 -64.8 L 325.3 -64.8 Q 324.7 -62.7 322.4 -61.4 L 322.4 -61.4 L 322.4 -61.4 Q 320 -60.1 317.4 -60.1 L 317.4 -60.1 L 317.4 -60.1 Q 314.8 -60.1 313 -61.1 L 313 -61.1 L 313 -61.1 Q 311.2 -62.1 310.7 -63.8 L 310.7 -63.8 L 310.7 -63.8 Q 309.7 -62.2 307.5 -61.1 L 307.5 -61.1 L 307.5 -61.1 Q 305.4 -60.1 302.4 -60.1 L 302.4 -60.1 L 302.4 -60.1 Q 299.5 -60.1 297.2 -60.9 L 297.2 -60.9 L 297.2 -60.9 Q 294.8 -61.6 293.3 -63.3 Z M 306.8 -89.3 L 306.8 -89.3 L 306.8 -89.3 Q 306.1 -88.1 305.4 -86.2 L 305.4 -86.2 L 305.4 -86.2 Q 304.8 -84.2 303.7 -79 L 303.7 -79 L 303.7 -79 Q 302.7 -73.8 302.7 -70.1 L 302.7 -70.1 L 302.7 -70.1 Q 302.7 -66.4 303.2 -65.3 L 303.2 -65.3 L 303.2 -65.3 Q 303.8 -64.2 304.8 -64.2 L 304.8 -64.2 L 304.8 -64.2 Q 306.9 -64.2 308.4 -66.2 L 308.4 -66.2 L 308.4 -66.2 Q 309.9 -68.1 310.5 -71.6 L 310.5 -71.6 L 313.9 -90.3 L 313.9 -90.3 Q 312.5 -91.5 311 -91.5 L 311 -91.5 L 311 -91.5 Q 309.4 -91.5 308.5 -91 L 308.5 -91 L 308.5 -91 Q 307.5 -90.4 306.8 -89.3 Z M 346 -64.9 L 346 -64.9 L 346 -64.9 Q 344 -60.1 337.7 -60.1 L 337.7 -60.1 L 337.7 -60.1 Q 334.5 -60.1 332.4 -62.3 L 332.4 -62.3 L 332.4 -62.3 Q 330.8 -64.2 330.8 -66.3 L 330.8 -66.3 L 330.8 -66.3 Q 330.8 -71.1 333 -81.6 L 333 -81.6 L 337.7 -106.2 L 350.7 -107.5 L 344.5 -75.1 L 344.5 -75.1 Q 343.4 -70.3 343.4 -68.7 L 343.4 -68.7 L 343.4 -68.7 Q 343.4 -65 346 -64.9 Z M 366.7 -64.9 L 366.7 -64.9 L 366.7 -64.9 Q 364.8 -60.1 358.4 -60.1 L 358.4 -60.1 L 358.4 -60.1 Q 355.2 -60.1 353.2 -62.3 L 353.2 -62.3 L 353.2 -62.3 Q 351.5 -64.2 351.5 -66.3 L 351.5 -66.3 L 351.5 -66.3 Q 351.5 -71.1 353.7 -81.6 L 353.7 -81.6 L 358.4 -106.2 L 371.4 -107.5 L 365.2 -75.1 L 365.2 -75.1 Q 364.1 -70.3 364.1 -68.7 L 364.1 -68.7 L 364.1 -68.7 Q 364.1 -65 366.7 -64.9 Z M 398.1 -72.2 L 398.1 -72.2 L 398.1 -72.2 Q 399.7 -71.1 399.7 -68.7 L 399.7 -68.7 L 399.7 -68.7 Q 399.7 -66.3 398.5 -64.8 L 398.5 -64.8 L 398.5 -64.8 Q 397.3 -63.2 395.3 -62.2 L 395.3 -62.2 L 395.3 -62.2 Q 391.2 -60.1 386.8 -60.1 L 386.8 -60.1 L 386.8 -60.1 Q 382.4 -60.1 379.8 -61.1 L 379.8 -61.1 L 379.8 -61.1 Q 377.2 -62 375.4 -63.8 L 375.4 -63.8 L 375.4 -63.8 Q 372 -67.2 372 -73.4 L 372 -73.4 L 372 -73.4 Q 372 -83.1 377.3 -89 L 377.3 -89 L 377.3 -89 Q 382.9 -95.3 392.7 -95.3 L 392.7 -95.3 L 392.7 -95.3 Q 398.8 -95.3 401.8 -92.7 L 401.8 -92.7 L 401.8 -92.7 Q 404 -90.8 404 -87.7 L 404 -87.7 L 404 -87.7 Q 404 -76.4 384.6 -76.4 L 384.6 -76.4 L 384.6 -76.4 Q 384.3 -74.8 384.3 -73.4 L 384.3 -73.4 L 384.3 -73.4 Q 384.3 -70.4 385.6 -69.3 L 385.6 -69.3 L 385.6 -69.3 Q 387 -68.2 389.4 -68.2 L 389.4 -68.2 L 389.4 -68.2 Q 391.8 -68.2 394.4 -69.3 L 394.4 -69.3 L 394.4 -69.3 Q 397 -70.4 398.1 -72.2 Z M 385 -79.2 L 385 -79.2 L 385 -79.2 Q 389.6 -79.2 392.2 -82 L 392.2 -82 L 392.2 -82 Q 394.8 -84.7 394.8 -89 L 394.8 -89 L 394.8 -89 Q 394.8 -90.4 394.3 -91.2 L 394.3 -91.2 L 394.3 -91.2 Q 393.7 -92 392.7 -92 L 392.7 -92 L 392.7 -92 Q 391.6 -92 390.6 -91.6 L 390.6 -91.6 L 390.6 -91.6 Q 389.7 -91.2 388.8 -89.8 L 388.8 -89.8 L 388.8 -89.8 Q 386.4 -86.6 385 -79.2 Z M 426.3 -79.4 L 426.3 -79.4 L 426.3 -79.4 Q 428.6 -83.5 428.6 -87.6 L 428.6 -87.6 L 428.6 -87.6 Q 428.6 -90.4 426.6 -90.4 L 426.6 -90.4 L 426.6 -90.4 Q 425 -90.4 423.4 -87.8 L 423.4 -87.8 L 423.4 -87.8 Q 421.8 -85.1 421.3 -81.7 L 421.3 -81.7 L 417.9 -61.4 L 404.7 -60.1 L 411.2 -94 L 421.8 -95.3 L 420.6 -88.8 L 420.6 -88.8 Q 423.8 -95.3 430.8 -95.3 L 430.8 -95.3 L 430.8 -95.3 Q 434.5 -95.3 436.5 -93.4 L 436.5 -93.4 L 436.5 -93.4 Q 438.5 -91.5 438.5 -87.5 L 438.5 -87.5 L 438.5 -87.5 Q 438.5 -83.6 436 -81.1 L 436 -81.1 L 436 -81.1 Q 433.4 -78.6 428.9 -78.6 L 428.9 -78.6 L 428.9 -78.6 Q 427 -78.6 426.3 -79.4 Z M 459.9 -68.6 L 459.9 -68.6 L 459.9 -68.6 Q 456.6 -65.2 450.5 -65.2 L 450.5 -65.2 L 450.5 -65.2 Q 442.9 -65.2 441.3 -70.7 L 441.3 -70.7 L 441.3 -70.7 Q 440.8 -72.4 440.8 -74.2 L 440.8 -74.2 L 440.8 -74.2 Q 440.8 -76.1 441.2 -78 L 441.2 -78 L 444.2 -94 L 457.2 -95.3 L 453.6 -76.7 L 453.6 -76.7 Q 453.5 -75.8 453.3 -75 L 453.3 -75 L 453.3 -75 Q 453.1 -74.1 453.1 -73.1 L 453.1 -73.1 L 453.1 -73.1 Q 453.1 -72.2 453.5 -71.6 L 453.5 -71.6 L 453.5 -71.6 Q 453.8 -71 454.2 -70.6 L 454.2 -70.6 L 454.2 -70.6 Q 455 -70.1 456.4 -70.1 L 456.4 -70.1 L 456.4 -70.1 Q 457.7 -70.1 458.9 -71.8 L 458.9 -71.8 L 458.9 -71.8 Q 460.1 -73.4 460.7 -76.3 L 460.7 -76.3 L 464.2 -94 L 476.8 -95.3 L 472 -70.2 L 472 -70.2 Q 469.6 -57.9 464.8 -53 L 464.8 -53 L 464.8 -53 Q 462.3 -50.5 459.1 -49.5 L 459.1 -49.5 L 459.1 -49.5 Q 455.8 -48.5 451.7 -48.5 L 451.7 -48.5 L 451.7 -48.5 Q 444.9 -48.5 441.1 -50.6 L 441.1 -50.6 L 441.1 -50.6 Q 437.3 -52.7 437.3 -56.3 L 437.3 -56.3 L 437.3 -56.3 Q 437.3 -58.9 439.2 -60.4 L 439.2 -60.4 L 439.2 -60.4 Q 441.2 -61.9 444.3 -61.9 L 444.3 -61.9 L 444.3 -61.9 Q 447 -61.9 449 -60.7 L 449 -60.7 L 449 -60.7 Q 450.3 -60 450.8 -59.1 L 450.8 -59.1 L 450.8 -59.1 Q 449.4 -57.9 449.4 -55.8 L 449.4 -55.8 L 449.4 -55.8 Q 449.4 -52.9 451.9 -52.9 L 451.9 -52.9 L 451.9 -52.9 Q 456.1 -52.9 458.6 -62.7 L 458.6 -62.7 L 458.6 -62.7 Q 459.3 -65.5 459.9 -68.6 Z" fill="url(#editing-rainbow-gradient)"></path></g></g><style>text {
  font-size: 64px;
  font-family: Arial Black;
  dominant-baseline: central;
  text-anchor: middle;
}</style></svg>